<svg width="200" height="124" viewBox="0 0 200 124" fill="none" xmlns="http://www.w3.org/2000/svg">
<path d="M63.6437 56.6483C63.6437 56.6483 53.8925 57.0546 49.2797 52.5136C43.6752 46.9926 46.8897 41.1969 49.2797 39.6792C51.6698 38.1616 59.7121 37.3131 61.899 44.6863C63.811 51.1513 63.6437 56.6483 63.6437 56.6483Z" fill="white"/>
<path d="M63.824 56.6483C63.824 56.6483 73.5753 57.0546 78.188 52.5136C83.7926 46.9926 80.578 41.1969 78.188 39.6792C75.798 38.1616 67.7556 37.3131 65.5687 44.6863C63.6567 51.1513 63.824 56.6483 63.824 56.6483Z" fill="white"/>
<path d="M19.1694 58.273H19.0356V114.285H65.6697V58.273H19.1694Z" fill="white"/>
<path d="M59.7339 58.3461V114.358H100.08V58.492L59.7339 58.3461Z" fill="#E0DFE1"/>
<path d="M90.7016 68.8308H82.6738V112.728H90.7016V68.8308Z" fill="#E0DFE1"/>
<path d="M118.178 112.716H102.281V101.842C102.281 101.416 102.111 100.99 101.807 100.686C101.502 100.382 101.089 100.212 100.651 100.212C100.213 100.212 99.7996 100.382 99.4955 100.686C99.1914 100.99 99.0211 101.404 99.0211 101.842V112.716H91.565C91.565 112.716 91.5164 112.728 91.4921 112.728H89.9352V59.9758H99.0211V93.4614C99.0211 93.8871 99.1914 94.3006 99.4955 94.6169C99.7996 94.921 100.213 95.0912 100.651 95.0912C101.089 95.0912 101.502 94.921 101.807 94.6169C102.111 94.3128 102.281 93.8992 102.281 93.4614V56.7039H17.5515V112.704H10.6914C9.77911 112.704 9.04932 113.433 9.04932 114.346C9.04932 115.258 9.77911 115.988 10.6914 115.988H29.1917C29.1917 115.988 29.2404 115.976 29.2647 115.976H45.0648C45.4905 115.976 45.9162 115.805 46.2203 115.501C46.5244 115.197 46.6947 114.784 46.6947 114.346C46.6947 113.908 46.5244 113.494 46.2203 113.19C45.9162 112.886 45.5027 112.716 45.0648 112.716H29.2525C29.2525 112.716 29.2039 112.704 29.1796 112.704H20.7869V59.9637H64.0274V112.728H53.5669C53.1412 112.728 52.7155 112.898 52.4114 113.202C52.1074 113.506 51.9371 113.92 51.9371 114.358C51.9371 114.796 52.1074 115.209 52.4114 115.513C52.7155 115.817 53.1291 115.988 53.5669 115.988H91.4799C91.4799 115.988 91.5286 116 91.5529 116H118.166C119.078 116 119.808 115.27 119.808 114.358C119.808 113.446 119.078 112.716 118.166 112.716H118.178ZM78.526 112.728H67.2993V59.9637H78.526V112.728ZM86.6754 112.655H81.7736V60.1218H86.6876V112.667L86.6754 112.655Z" fill="#393B46"/>
<path d="M6.21544 116H1.64204C0.729797 116 0 115.27 0 114.358C0 113.446 0.729797 112.716 1.64204 112.716H6.21544C7.12769 112.716 7.85748 113.446 7.85748 114.358C7.85748 115.27 7.12769 116 6.21544 116Z" fill="#393B46"/>
<path d="M58.9068 58.4677C56.3768 58.4677 48.2274 58.1149 43.8243 53.7726C40.4186 50.4277 39.9928 47.0828 40.2239 44.8813C40.5645 41.7188 42.4133 39.2253 44.0919 38.155C46.0623 36.9022 50.0154 36.2697 53.4454 37.5468C55.4889 38.3131 58.177 40.0768 59.3933 44.1636C61.4002 50.9264 61.2421 56.6188 61.2299 56.8621C61.2056 57.7257 60.5123 58.419 59.6609 58.4555C59.6001 58.4555 59.3325 58.4677 58.9068 58.4677ZM49.4437 40.1376C47.826 40.1376 46.4272 40.5633 45.8434 40.9282C45.0163 41.4512 43.7026 43.0324 43.4715 45.234C43.2404 47.3991 44.1284 49.4912 46.111 51.4373C49.1883 54.4659 55.0753 55.0619 57.9094 55.1592C57.8242 53.1036 57.4715 49.2965 56.2308 45.1002C55.5618 42.8622 54.236 41.3539 52.2778 40.6241C51.329 40.2714 50.3438 40.1376 49.4316 40.1376H49.4437Z" fill="#393B46"/>
<path d="M60.4634 58.4676C60.0376 58.4676 59.77 58.4676 59.7092 58.4554C58.8456 58.4189 58.1645 57.7256 58.1402 56.862C58.1402 56.6188 57.982 50.9264 59.9768 44.1636C61.1932 40.0767 63.8812 38.313 65.9247 37.5467C69.3547 36.2574 73.3078 36.9021 75.2782 38.1549C76.9689 39.2253 78.8178 41.7309 79.1462 44.8812C79.3773 47.0828 78.9394 50.4155 75.5458 53.7726C71.1427 58.1149 62.9933 58.4676 60.4634 58.4676ZM69.9142 40.1375C69.002 40.1375 68.0168 40.2713 67.068 40.6241C65.1097 41.3539 63.7839 42.8621 63.115 45.1002C61.8743 49.2965 61.5337 53.1036 61.4364 55.1592C64.2705 55.0619 70.1575 54.4659 73.2348 51.4372C75.2174 49.4911 76.1053 47.399 75.8742 45.2339C75.6431 43.0324 74.3295 41.4512 73.5024 40.9281C72.9186 40.5632 71.5319 40.1375 69.9021 40.1375H69.9142Z" fill="#393B46"/>
<path d="M103.996 58.3461H14.5718V71.3608H103.996V58.3461Z" fill="white"/>
<path d="M103.996 73.0027H14.5712C13.659 73.0027 12.9292 72.2729 12.9292 71.3607V58.346C12.9292 57.4337 13.659 56.7039 14.5712 56.7039H103.996C104.908 56.7039 105.638 57.4337 105.638 58.346V71.3607C105.638 72.2729 104.908 73.0027 103.996 73.0027ZM16.2133 69.7186H102.354V59.988H16.2133V69.7186Z" fill="#393B46"/>
<path d="M70.6323 73.0027C69.72 73.0027 68.9902 72.2729 68.9902 71.3607V60.657C68.9902 59.7448 69.72 59.015 70.6323 59.015C71.5445 59.015 72.2743 59.7448 72.2743 60.657V71.3607C72.2743 72.2729 71.5445 73.0027 70.6323 73.0027Z" fill="#393B46"/>
<path d="M91.7963 73.0028H83.7685C82.8563 73.0028 82.1265 72.273 82.1265 71.3608V58.4434C82.1265 57.5311 82.8563 56.8013 83.7685 56.8013H91.7963C92.7085 56.8013 93.4383 57.5311 93.4383 58.4434V71.3608C93.4383 72.273 92.7085 73.0028 91.7963 73.0028ZM85.4106 69.7187H90.1542V60.0854H85.4106V69.7187Z" fill="#393B46"/>
</svg>
